<!-- created by svgstack.com | Attribution is required. --><svg width="201" height="201" viewBox="0 0 201 201" fill="none" xmlns="http://www.w3.org/2000/svg"><g clip-path="url(#clip0_106_2086)"><path fill-rule="evenodd" clip-rule="evenodd" d="M50.7158 129.29V150.071L0.920166 100.275L11.3175 89.8787L50.7158 129.29ZM71.4972 150.071H50.7158L100.512 199.867L110.908 189.47L71.4972 150.071ZM189.679 110.673L200.076 100.275L100.485 0.684326L90.1143 11.1082L129.513 50.5066H105.703L78.2031 23.0592L67.8057 33.4566L84.9085 50.5597H72.9579V127.856H150.254V115.905L167.358 133.008L177.754 122.61L150.254 95.1104V71.3012L189.679 110.673ZM55.9079 45.3278L45.484 55.7251L56.6382 66.8794L67.0356 56.4821L55.9079 45.3278ZM144.345 133.765L133.948 144.162L145.102 155.316L155.499 144.92L144.345 133.765ZM33.5994 67.6231L23.2021 78.0204L50.7026 105.521V84.7262L33.5994 67.6231ZM116.088 150.111H95.306L122.807 177.612L133.204 167.215L116.088 150.111Z" fill="#FF5656"/></g><defs><clipPath id="clip0_106_2086"><rect width="200" height="200" fill="white" transform="translate(0.920166 0.275146)"/></clipPath></defs></svg> 